<?xml version="1.0" encoding="UTF-8"?>
<!DOCTYPE svg  PUBLIC '-//W3C//DTD SVG 1.0//EN'  'http://www.w3.org/TR/2001/REC-SVG-20010904/DTD/svg10.dtd'>
<svg width="44.627mm" height="44.277mm" clip-rule="evenodd" fill-rule="evenodd" image-rendering="optimizeQuality" shape-rendering="geometricPrecision" text-rendering="geometricPrecision" version="1.0" viewBox="0 0 4048 4017" xml:space="preserve" xmlns="http://www.w3.org/2000/svg">
 <defs>
  <style type="text/css">
   <![CDATA[
    .fil1 {fill:none}
    .fil0 {fill:#2B2A29}
   ]]>
  </style>
 </defs>
   <path class="fil0" d="m171 1908c801-133 1646-139 2459-144 0 0 425-15 469 17l15 17c-15 25-6 16-26 29h2c-1124 400-1774 446-2919 81z"/>
   <path class="fil1" d="m171 1908c1240 94 1641 111 2915-107l28-3"/>
   <path class="fil0" d="m171 1922c-13 807 94 1345 972 1650 1074 372 1981-534 1961-1626l-3-148c395 582-15 1432-486 1841-821 712-2022 347-2465-515-221-431-184-786 21-1202z"/>
   <path class="fil1" d="m171 1922c-215 671-4 1278 592 1647 849 527 1672 264 2199-566 177-279 292-863 139-1205"/>
   <path class="fil0" d="m3251 2100c-308-229 836-452 796 325-34 682-1015 576-975 221 3-27 6-22 29-40 133 70 364 140 483 14 290-306-128-716-333-520z"/>
   <path class="fil1" d="m3251 2100c-69-292 958-78 493 578-171 242-654 92-643-72"/>
   <path class="fil0" d="m1006 1949c413-455-337-599-341-1320-1-201 150-588 382-528-3 41 3 28-14 59-215 391-65 506 144 857 226 381 270 1113-171 932z"/>
   <path class="fil1" d="m1006 1949c397-38 207-579 24-820-222-292-365-750-21-1001l38-27"/>
   <path class="fil0" d="m1745 1935c-327-4-404-604-254-900 162-319 485-513 165-955l-48-75c472-73 613 726 255 1131-309 349-181 450-118 799z"/>
   <path class="fil1" d="m1745 1935c-212-141-311-633-13-931 262-262 284-867-124-999"/>
   <path class="fil0" d="m2608 224c-144 345-331 431 3 771 430 438-87 784-469 981 48-388 423-526 262-663-533-454-135-1168 204-1089z"/>
</svg>
